<svg xmlns="http://www.w3.org/2000/svg" width="160" height="90" viewBox="0 0 160 90"><g fill="none" fill-rule="evenodd" transform="translate(46 13)"><path stroke="#000" stroke-width="2" d="M32.982 58.942c2.46.717 6.033 1.075 10.72 1.075 10.293 0 15.55-1.578 15.772-4.734V3.92C58.857 1.307 53.804 0 44.314 0S29.698 1.145 28.936 3.434h0V45.79"/><path stroke="#000" d="M28.908 3.235c1.555 2.669 6.542 4.004 14.963 4.004 8.42 0 13.622-1.15 15.607-3.448"/><path stroke="#000" stroke-width="2" d="M.03 47.822v11.46c-.484 3.455 4.824 5.182 15.925 5.182s16.771-1.578 17.01-4.734V48.308c-.666-2.613-6.116-3.92-16.35-3.92C6.381 44.388.852 45.533.03 47.822z"/><path stroke="#000" d="M0 48.037c1.677 2.67 7.056 4.005 16.137 4.005s14.692-1.15 16.832-3.448"/><g fill="#000" transform="translate(31.645 31.645)"><ellipse cx=".713" cy="1.425" rx="1" ry="1.425"/><ellipse cx="4.889" cy="1.425" rx="1.069" ry="1.425"/><ellipse cx="24.09" cy="1.425" rx="1" ry="1.425" transform="matrix(-1 0 0 1 48.18 0)"/><ellipse cx="19.913" cy="1.425" rx="1.069" ry="1.425" transform="matrix(-1 0 0 1 39.827 0)"/><circle cx="9.779" cy="1.425" r="1.425"/><circle cx="15.024" cy="1.425" r="1.425"/></g><g fill="#000" transform="translate(31.645 36.776)"><ellipse cx=".713" cy="1.425" rx="1" ry="1.425"/><ellipse cx="4.889" cy="1.425" rx="1.069" ry="1.425"/><ellipse cx="24.09" cy="1.425" rx="1" ry="1.425" transform="matrix(-1 0 0 1 48.18 0)"/><ellipse cx="19.913" cy="1.425" rx="1.069" ry="1.425" transform="matrix(-1 0 0 1 39.827 0)"/><circle cx="9.779" cy="1.425" r="1.425"/><circle cx="15.024" cy="1.425" r="1.425"/></g><g fill="#000" transform="translate(31.645 41.908)"><ellipse cx=".713" cy="1.425" rx="1" ry="1.425"/><ellipse cx="4.889" cy="1.425" rx="1.069" ry="1.425"/><ellipse cx="24.09" cy="1.425" rx="1" ry="1.425" transform="matrix(-1 0 0 1 48.18 0)"/><ellipse cx="19.913" cy="1.425" rx="1.069" ry="1.425" transform="matrix(-1 0 0 1 39.827 0)"/><circle cx="9.779" cy="1.425" r="1.425"/><circle cx="15.024" cy="1.425" r="1.425"/></g><g fill="#000" transform="translate(34.645 47.04)"><ellipse cx="1.889" cy="1.425" rx="1.069" ry="1.425"/><ellipse cx="21.09" cy="1.425" rx="1" ry="1.425" transform="matrix(-1 0 0 1 42.18 0)"/><ellipse cx="16.913" cy="1.425" rx="1.069" ry="1.425" transform="matrix(-1 0 0 1 33.827 0)"/><circle cx="6.779" cy="1.425" r="1.425"/><circle cx="12.024" cy="1.425" r="1.425"/></g></g></svg>