<svg width="24" height="24" viewBox="0 0 24 24" fill="none" xmlns="http://www.w3.org/2000/svg">
<path fill-rule="evenodd" clip-rule="evenodd" d="M12 2.22461C11.0102 2.22461 10.0615 3.12877 10.0615 4.43263V11.5655C10.0615 12.8693 11.0102 13.7735 12 13.7735C12.9899 13.7735 13.9386 12.8693 13.9386 11.5655V4.43263C13.9386 3.12877 12.9899 2.22461 12 2.22461ZM8.06152 4.43263C8.06152 2.19301 9.74407 0.224609 12 0.224609C14.256 0.224609 15.9386 2.19301 15.9386 4.43263V11.5655C15.9386 13.8051 14.256 15.7735 12 15.7735C9.74407 15.7735 8.06152 13.8051 8.06152 11.5655V4.43263ZM11 19.6843V21.7491C11 22.3013 11.4477 22.7491 12 22.7491C12.5523 22.7491 13 22.3013 13 21.7491V19.6843C14.6865 19.4649 16.2644 18.6948 17.4801 17.4791C18.9335 16.0257 19.75 14.0545 19.75 11.9991C19.75 11.4468 19.3023 10.9991 18.75 10.9991C18.1977 10.9991 17.75 11.4468 17.75 11.9991C17.75 13.524 17.1442 14.9866 16.0659 16.0649C14.9875 17.1433 13.525 17.7491 12 17.7491C10.475 17.7491 9.01247 17.1433 7.93414 16.0649C6.8558 14.9866 6.25 13.524 6.25 11.9991C6.25 11.4468 5.80228 10.9991 5.25 10.9991C4.69772 10.9991 4.25 11.4468 4.25 11.9991C4.25 14.0545 5.06652 16.0257 6.51992 17.4791C7.73559 18.6948 9.31353 19.4649 11 19.6843Z" fill="#202020"/>
</svg>
